<svg width="261" height="59" viewBox="0 0 261 59" fill="none" xmlns="http://www.w3.org/2000/svg">
<g clip-path="url(#clip0_606_179)">
<path d="M221.47 5.29028H215.071C213.807 5.29028 212.782 6.31481 212.782 7.57862V13.9831C212.782 15.2469 213.807 16.2714 215.071 16.2714H221.47C222.734 16.2714 223.759 15.2469 223.759 13.9831V7.57862C223.759 6.31481 222.734 5.29028 221.47 5.29028Z" fill="#F7941D"/>
<path d="M233.818 17.6433H227.418C226.154 17.6433 225.13 18.6678 225.13 19.9316V26.3361C225.13 27.5999 226.154 28.6245 227.418 28.6245H233.818C235.082 28.6245 236.106 27.5999 236.106 26.3361V19.9316C236.106 18.6678 235.082 17.6433 233.818 17.6433Z" fill="#F7941D"/>
<path d="M212.782 38.6893C212.782 38.9896 212.841 39.2869 212.957 39.5643C213.072 39.8417 213.24 40.0936 213.453 40.3057C213.665 40.5178 213.918 40.6859 214.195 40.8004C214.473 40.9149 214.77 40.9735 215.071 40.9729H221.47C221.771 40.9735 222.068 40.9149 222.346 40.8004C222.623 40.6859 222.875 40.5178 223.088 40.3057C223.301 40.0936 223.469 39.8417 223.584 39.5643C223.699 39.2869 223.759 38.9896 223.759 38.6893V32.2896C223.759 31.9894 223.699 31.692 223.584 31.4147C223.469 31.1373 223.301 30.8854 223.088 30.6732C222.875 30.4611 222.623 30.293 222.346 30.1786C222.068 30.0641 221.771 30.0055 221.47 30.0061H215.071C214.77 30.0055 214.473 30.0641 214.195 30.1786C213.918 30.293 213.665 30.4611 213.453 30.6732C213.24 30.8854 213.072 31.1373 212.957 31.4147C212.841 31.692 212.782 31.9894 212.782 32.2896V38.6893Z" fill="#F7941D"/>
<path d="M200.429 51.0379C200.428 51.3386 200.487 51.6364 200.602 51.9143C200.716 52.1923 200.885 52.4448 201.097 52.6574C201.31 52.87 201.563 53.0385 201.841 53.1533C202.118 53.2681 202.416 53.3268 202.717 53.3262H209.121C209.728 53.3262 210.31 53.0851 210.74 52.656C211.169 52.2268 211.41 51.6448 211.41 51.0379V44.6334C211.405 44.0298 211.161 43.4527 210.733 43.0277C210.304 42.6027 209.725 42.3642 209.121 42.3643H202.717C202.417 42.3636 202.119 42.4222 201.842 42.5367C201.564 42.6512 201.312 42.8193 201.099 43.0314C200.887 43.2435 200.718 43.4955 200.603 43.7728C200.488 44.0502 200.429 44.3475 200.429 44.6478V51.0379Z" fill="#F7941D"/>
<path d="M223.758 14.7842C223.758 15.5476 224.061 16.2798 224.601 16.8196C225.141 17.3594 225.873 17.6626 226.637 17.6626H227.438C226.831 17.6639 226.25 17.9054 225.821 18.3343C225.392 18.7631 225.151 19.3444 225.149 19.951V19.1306C225.149 18.3672 224.846 17.6351 224.306 17.0953C223.767 16.5555 223.034 16.2522 222.271 16.2522H221.47C221.771 16.2528 222.068 16.1941 222.346 16.0793C222.624 15.9645 222.877 15.796 223.089 15.5834C223.302 15.3708 223.471 15.1182 223.585 14.8403C223.7 14.5624 223.759 14.2646 223.758 13.9639V14.7842Z" fill="#F7941D"/>
<path d="M222.271 29.9966C223.034 29.9966 223.767 29.6933 224.306 29.1535C224.846 28.6137 225.149 27.8816 225.149 27.1182V26.3362C225.151 26.9427 225.392 27.524 225.821 27.9529C226.25 28.3818 226.831 28.6233 227.438 28.6245H226.637C225.873 28.6245 225.141 28.9278 224.601 29.4676C224.061 30.0074 223.758 30.7395 223.758 31.5029V32.2897C223.759 31.989 223.7 31.6912 223.585 31.4132C223.471 31.1353 223.302 30.8828 223.089 30.6702C222.877 30.4576 222.624 30.289 222.346 30.1743C222.068 30.0595 221.771 30.0007 221.47 30.0014L222.271 29.9966Z" fill="#F7941D"/>
<path d="M209.922 42.3642C210.686 42.3642 211.418 42.061 211.958 41.5212C212.497 40.9814 212.801 40.2492 212.801 39.4858V38.6895C212.801 38.9897 212.86 39.2871 212.975 39.5644C213.09 39.8418 213.259 40.0937 213.471 40.3059C213.684 40.518 213.936 40.6861 214.214 40.8005C214.491 40.915 214.789 40.9736 215.089 40.973H214.283C213.524 40.9793 212.798 41.2854 212.263 41.8245C211.729 42.3636 211.429 43.0921 211.429 43.8514V44.6574C211.429 44.3548 211.37 44.0552 211.254 43.7757C211.138 43.4963 210.968 43.2426 210.753 43.0293C210.539 42.8161 210.284 42.6475 210.004 42.5333C209.724 42.4192 209.424 42.3617 209.121 42.3642H209.922Z" fill="#F7941D"/>
<path d="M237.469 13.9831C237.468 14.2838 237.527 14.5817 237.642 14.8596C237.756 15.1375 237.925 15.39 238.138 15.6026C238.35 15.8153 238.603 15.9838 238.881 16.0986C239.159 16.2133 239.456 16.2721 239.757 16.2715H246.162C246.462 16.2715 246.759 16.2122 247.037 16.0972C247.314 15.9821 247.566 15.8135 247.778 15.6009C247.99 15.3884 248.158 15.1361 248.273 14.8585C248.387 14.5809 248.446 14.2834 248.445 13.9831V7.57867C248.445 6.97259 248.205 6.39127 247.777 5.96226C247.348 5.53325 246.768 5.2916 246.162 5.29033H239.771C239.47 5.28843 239.171 5.34622 238.891 5.46037C238.612 5.57452 238.358 5.74278 238.144 5.95546C237.93 6.16814 237.76 6.42104 237.644 6.69962C237.528 6.9782 237.469 7.27694 237.469 7.57867V13.9831Z" fill="#39B54A"/>
<path d="M249.837 26.3361C249.837 26.943 250.078 27.5251 250.507 27.9542C250.936 28.3834 251.518 28.6245 252.125 28.6245H258.53C259.136 28.6232 259.717 28.3815 260.145 27.9525C260.573 27.5235 260.813 26.9422 260.813 26.3361V19.9316C260.813 19.3256 260.573 18.7443 260.145 18.3152C259.717 17.8862 259.136 17.6446 258.53 17.6433H252.125C251.518 17.6433 250.936 17.8844 250.507 18.3135C250.078 18.7427 249.837 19.3247 249.837 19.9316V26.3361Z" fill="#39B54A"/>
<path d="M237.469 38.6894C237.469 38.9897 237.528 39.287 237.643 39.5644C237.758 39.8417 237.927 40.0937 238.139 40.3058C238.352 40.5179 238.604 40.686 238.882 40.8005C239.159 40.915 239.457 40.9736 239.757 40.9729H246.162C246.767 40.9729 247.348 40.7323 247.776 40.3041C248.205 39.8759 248.445 39.295 248.445 38.6894V32.2897C248.445 31.6841 248.205 31.1033 247.776 30.675C247.348 30.2468 246.767 30.0062 246.162 30.0062H239.771C239.47 30.0037 239.171 30.0608 238.892 30.1745C238.612 30.2881 238.358 30.4559 238.144 30.6682C237.93 30.8805 237.76 31.1331 237.644 31.4114C237.528 31.6897 237.469 31.9882 237.469 32.2897V38.6894Z" fill="#39B54A"/>
<path d="M225.13 51.0379C225.13 51.6448 225.371 52.2268 225.8 52.656C226.229 53.0851 226.811 53.3262 227.418 53.3262H233.823C234.123 53.3268 234.421 53.2681 234.699 53.1533C234.977 53.0385 235.23 52.87 235.442 52.6574C235.655 52.4448 235.823 52.1923 235.938 51.9143C236.053 51.6364 236.112 51.3386 236.111 51.0379V44.6334C236.107 44.0294 235.864 43.4516 235.435 43.0263C235.007 42.601 234.427 42.363 233.823 42.3643H227.418C226.812 42.3643 226.231 42.6047 225.802 43.0328C225.373 43.4609 225.131 44.0417 225.13 44.6478V51.0379Z" fill="#39B54A"/>
<path d="M248.46 14.7842C248.46 15.5476 248.763 16.2798 249.303 16.8196C249.843 17.3594 250.575 17.6626 251.339 17.6626H252.14C251.533 17.6626 250.951 17.9037 250.522 18.3329C250.093 18.762 249.851 19.3441 249.851 19.951V19.1306C249.851 18.3672 249.548 17.6351 249.008 17.0953C248.469 16.5555 247.736 16.2522 246.973 16.2522H246.172C246.472 16.2522 246.769 16.193 247.047 16.0779C247.324 15.9629 247.576 15.7942 247.788 15.5817C248 15.3691 248.168 15.1168 248.283 14.8392C248.397 14.5616 248.456 14.2641 248.455 13.9639L248.46 14.7842Z" fill="#39B54A"/>
<path d="M246.977 29.9966C247.74 29.9966 248.473 29.6933 249.012 29.1535C249.552 28.6137 249.855 27.8816 249.855 27.1182V26.3362C249.855 26.9431 250.097 27.5251 250.526 27.9543C250.955 28.3834 251.537 28.6245 252.144 28.6245H251.343C250.579 28.6245 249.847 28.9278 249.307 29.4676C248.767 30.0074 248.464 30.7395 248.464 31.5029V32.2897C248.465 31.9894 248.406 31.692 248.292 31.4143C248.177 31.1367 248.009 30.8844 247.797 30.6719C247.585 30.4593 247.333 30.2907 247.056 30.1756C246.778 30.0606 246.481 30.0014 246.181 30.0014L246.977 29.9966Z" fill="#39B54A"/>
<path d="M234.624 42.3642C235.388 42.3642 236.12 42.061 236.66 41.5212C237.199 40.9814 237.503 40.2492 237.503 39.4858V38.6895C237.503 38.9897 237.562 39.2871 237.677 39.5644C237.792 39.8418 237.961 40.0937 238.173 40.3059C238.386 40.518 238.638 40.6861 238.916 40.8005C239.193 40.915 239.491 40.9736 239.791 40.973H238.99C238.226 40.973 237.494 41.2763 236.954 41.8161C236.415 42.3559 236.111 43.088 236.111 43.8514V44.6574C236.112 44.3565 236.053 44.0584 235.939 43.7802C235.824 43.502 235.655 43.2492 235.443 43.0362C235.23 42.8232 234.978 42.6542 234.7 42.5389C234.422 42.4236 234.124 42.3642 233.823 42.3642H234.624Z" fill="#39B54A"/>
<path d="M0 5.22778H18.561L16.2486 9.1904H11.3314V25.439H6.53879V9.1904H0V5.22778Z" fill="#F7941D"/>
<path d="M18.796 5.22778H29.6428C30.3433 5.22778 30.9717 5.22778 31.5234 5.29495C32.0287 5.33347 32.5297 5.41695 33.0202 5.54441C33.4434 5.65322 33.8444 5.83505 34.2051 6.08171C34.5746 6.34764 34.8987 6.67166 35.1646 7.04118C35.745 7.75472 36.1625 8.58647 36.3879 9.47824C36.5804 10.2845 36.6786 11.1104 36.6806 11.9393C36.6887 12.695 36.6147 13.4495 36.4599 14.1892C36.3216 14.8714 36.0204 15.51 35.582 16.0506C35.1666 16.5727 34.6319 16.9873 34.0228 17.2595C33.547 17.4933 33.0487 17.6781 32.5356 17.8112C32.1608 17.8945 31.7779 17.9364 31.3939 17.936L36.3927 25.439H30.775L23.6413 14.4675V25.439H18.796V5.22778ZM23.6413 13.9014H28.242C29.4989 13.983 30.3864 13.8294 30.9045 13.4217C31.182 13.1803 31.4012 12.8792 31.5458 12.5411C31.6903 12.203 31.7565 11.8365 31.7393 11.4691C31.7872 11.1317 31.7399 10.7875 31.6025 10.4756C31.4652 10.1636 31.2434 9.89625 30.9621 9.70371C30.1646 9.27081 29.2551 9.08856 28.3523 9.1808H23.6413V13.9014Z" fill="#F7941D"/>
<path d="M55.419 7.34359C55.5123 7.35165 55.606 7.33454 55.6904 7.29404C55.7748 7.25353 55.8467 7.19112 55.8988 7.11331C56.008 6.93841 56.0783 6.74209 56.1051 6.53763C56.1429 6.28679 56.1605 6.03331 56.1578 5.77965V5.04565L58.048 5.75087C58.0476 6.19452 57.9993 6.63683 57.9041 7.07014C57.8233 7.4855 57.6012 7.8601 57.2756 8.13035C57.045 8.33016 56.765 8.46437 56.4649 8.51894C56.1256 8.55732 55.7844 8.57495 55.443 8.57171V16.8088C55.443 19.1563 55.1456 20.8865 54.5507 21.9995C54.0534 22.9726 53.3005 23.7919 52.3727 24.3694C51.5185 24.8414 50.5908 25.1658 49.6286 25.3289C48.5615 25.5036 47.4814 25.5871 46.4 25.5783C45.7907 25.5783 45.2343 25.5783 44.7209 25.5256C44.2141 25.4891 43.7096 25.425 43.2098 25.3337C42.708 25.2473 42.215 25.1156 41.737 24.9403C41.2197 24.7331 40.7193 24.4861 40.2402 24.2015C39.2174 23.5859 38.4793 22.5909 38.1869 21.4334C37.8243 19.788 37.6633 18.1045 37.7072 16.4202V5.22795H42.5046V16.78C42.4782 17.6527 42.5916 18.524 42.8404 19.361C43.0208 19.9604 43.4152 20.4726 43.9486 20.8002C44.3707 21.0447 44.8265 21.2258 45.3014 21.3375C45.6824 21.4107 46.0696 21.4477 46.4576 21.4478C47.3252 21.468 48.1817 21.249 48.933 20.8146C49.2746 20.6175 49.5729 20.3537 49.8103 20.0389C50.0477 19.724 50.2192 19.3646 50.3147 18.982C50.5463 17.9658 50.651 16.9248 50.6265 15.8829V5.22795H55.4238L55.419 7.34359Z" fill="#F7941D"/>
<path d="M66.5057 5.07434C67.2049 5.0755 67.9034 5.11876 68.5974 5.20387C69.3042 5.29173 70.0023 5.43938 70.6842 5.64523C71.3468 5.84529 71.9806 6.13073 72.5696 6.49436C73.1508 6.84424 73.6657 7.29412 74.0903 7.82323C74.183 7.83081 74.2761 7.81398 74.3602 7.77442C74.4444 7.73487 74.5167 7.67395 74.5701 7.59775C74.6804 7.42123 74.7523 7.22344 74.7811 7.01727C74.8249 6.76703 74.8458 6.51332 74.8435 6.25929V5.53009L76.7049 6.23051C76.7036 6.67253 76.6554 7.11316 76.561 7.54498C76.4818 7.95623 76.2653 8.32838 75.9469 8.6004C75.7892 8.73364 75.611 8.84056 75.4192 8.91702C75.2405 8.97525 75.0577 9.02015 74.8723 9.05135C75.3813 10.0247 75.7511 11.0647 75.9709 12.1408C76.2058 13.2707 76.3232 14.4218 76.3211 15.5758C76.341 17.1498 76.1194 18.7176 75.6639 20.2244C75.3153 21.4413 74.6822 22.5579 73.8169 23.4818C73.1456 24.2111 72.288 24.7435 71.3366 25.0217C70.521 25.2486 69.6883 25.409 68.8468 25.5015C68.0552 25.5734 67.2973 25.607 66.5729 25.607C65.1358 25.6203 63.7018 25.4707 62.2984 25.1609C61.0745 24.9067 59.9354 24.3454 58.9882 23.5298C57.9882 22.5618 57.2815 21.3313 56.9494 19.9797C56.4781 18.3931 56.2406 16.7463 56.2442 15.0912V14.5395C56.2424 14.4046 56.252 14.2698 56.2729 14.1365L56.6184 11.9058C56.8117 10.6241 57.3048 9.40614 58.0576 8.35094C58.5204 7.65912 59.1155 7.06566 59.8086 6.6047C60.4553 6.17757 61.1596 5.8448 61.9002 5.61644C62.6411 5.39283 63.4032 5.24653 64.1742 5.17989C64.9514 5.10793 65.7237 5.07434 66.4865 5.07434M61.1758 14.9473C61.1608 16.018 61.3047 17.0851 61.6028 18.1136C61.8729 19.0509 62.4815 19.8545 63.3107 20.3683C64.2118 20.9247 65.255 21.208 66.3138 21.1839C67.1611 21.183 67.9979 20.9963 68.7653 20.637C69.5203 20.2965 70.1495 19.7276 70.5643 19.0107C70.9442 18.434 71.1856 17.7772 71.2695 17.0917C71.351 16.5064 71.4038 16.1322 71.4182 15.9691C71.4362 15.8259 71.4459 15.6817 71.447 15.5374C71.4545 14.5626 71.3154 13.5923 71.0344 12.659C70.7844 11.7995 70.2832 11.0344 69.5952 10.4618C69.0984 10.1304 68.5483 9.88697 67.9689 9.74217C67.3329 9.57579 66.6785 9.49036 66.0212 9.48791C65.274 9.51361 64.5356 9.65773 63.8336 9.91487C63.4047 10.0658 63.0109 10.3022 62.6761 10.6097C62.3413 10.9173 62.0725 11.2897 61.8858 11.7043C61.3982 12.7142 61.1597 13.8262 61.1902 14.9473M63.4498 0.627197H66.4913L68.0457 3.75507H66.1267L63.4498 0.708752V0.627197Z" fill="#F7941D"/>
<path d="M84.5145 5.22778L90.6408 22.0233V5.22778H95.0879V25.439H87.4457L81.7033 9.08485V25.439H77.2178V5.22778H84.5145Z" fill="#F7941D"/>
<path d="M114.723 5.2279L112.354 9.5935H107.427C106.693 9.5935 106.031 9.5935 105.45 9.66066C104.93 9.69375 104.414 9.77893 103.91 9.91492C103.496 10.0229 103.107 10.2103 102.764 10.4666C102.431 10.7302 102.152 11.0561 101.943 11.4261C101.575 12.0802 101.301 12.7827 101.128 13.5129C100.989 14.1723 100.922 14.8445 100.926 15.5182C100.867 16.7476 101.153 17.969 101.751 19.0443C101.996 19.4459 102.304 19.8055 102.663 20.1093C102.997 20.3818 103.377 20.5929 103.785 20.733C104.242 20.8858 104.716 20.984 105.196 21.0256C105.784 21.0807 106.375 21.1063 106.966 21.1023H109.278V17.4803H104.179V13.1627H114.133V25.4392H105.277C103.722 25.4729 102.17 25.2592 100.682 24.8059C99.4289 24.4039 98.3715 23.5484 97.7168 22.4072C97.0605 21.3393 96.584 20.1708 96.3064 18.9483C96.0555 17.7397 95.9333 16.5079 95.9418 15.2736C95.9353 14.071 96.0576 12.8713 96.3064 11.6947C96.5841 10.476 97.0417 9.30542 97.6641 8.22145C97.9714 7.63292 98.3988 7.11537 98.9185 6.70221C99.4383 6.28905 100.039 5.98946 100.682 5.82278C102.229 5.38435 103.832 5.17583 105.441 5.20392L114.723 5.2279Z" fill="#F7941D"/>
<path d="M119.253 5.22778H137.814L135.502 9.1904H130.584V25.439H125.792V9.1904H119.253V5.22778Z" fill="#F7941D"/>
<path d="M137.991 5.22778H142.812V13.0331H149.941V5.22778H154.748V25.439H149.941V13.7095L147.576 17.3987H142.812V25.439H137.991V5.22778Z" fill="#F7941D"/>
<path d="M160.601 25.439H155.751V5.22778H160.601V25.439ZM160.601 29.3105H155.751V27.0797H160.601V29.3105Z" fill="#F7941D"/>
<path d="M169.327 5.22778L175.458 22.0233V5.22778H179.9V25.439H172.258L166.521 9.08485V25.439H162.03V5.22778H169.327Z" fill="#F7941D"/>
<path d="M181.057 5.22778H185.878V13.0331H193.012V5.22778H197.819V25.439H193.012V13.7095L190.642 17.3987H185.878V25.439H181.057V5.22778Z" fill="#F7941D"/>
<path d="M137.746 40.0615C137.738 39.1087 137.933 38.1652 138.317 37.2934C138.685 36.4532 139.204 35.6874 139.848 35.0339C140.505 34.3688 141.289 33.842 142.154 33.4844C143.018 33.1269 143.945 32.9458 144.88 32.9518C145.606 32.9478 146.328 33.0579 147.02 33.278C147.692 33.4938 148.329 33.8074 148.91 34.2087C149.48 34.6002 149.992 35.0702 150.431 35.6047C150.879 36.1434 151.24 36.7487 151.5 37.399C151.556 37.5528 151.586 37.715 151.587 37.8787C151.586 38.1683 151.481 38.4479 151.289 38.6655C151.185 38.7842 151.056 38.8778 150.91 38.9392C150.765 39.0007 150.608 39.0285 150.45 39.0205C150.245 39.0193 150.044 38.9612 149.869 38.8526C149.679 38.7419 149.528 38.5741 149.438 38.3728C149.063 37.4731 148.445 36.6957 147.653 36.1277C146.852 35.5335 145.878 35.2184 144.88 35.2305C144.22 35.2253 143.567 35.3576 142.961 35.6191C142.382 35.8629 141.853 36.2127 141.402 36.6506C140.959 37.0873 140.607 37.6074 140.366 38.1809C140.119 38.7771 139.994 39.4163 139.996 40.0615V46.8929C139.994 47.5353 140.126 48.1712 140.385 48.7591C140.631 49.3323 140.986 49.8522 141.431 50.2894C141.883 50.7263 142.411 51.076 142.99 51.3209C143.582 51.5784 144.22 51.7107 144.866 51.7095C145.525 51.7153 146.179 51.5829 146.785 51.3209C147.356 51.0722 147.877 50.7229 148.325 50.2894C148.769 49.855 149.12 49.3342 149.356 48.7591C149.606 48.1688 149.733 47.5339 149.73 46.8929V45.4153H147.432C147.282 45.4185 147.133 45.3912 146.994 45.3351C146.854 45.2791 146.728 45.1954 146.622 45.0891C146.516 44.9844 146.433 44.8599 146.376 44.7228C146.319 44.5857 146.29 44.4388 146.29 44.2904C146.29 44.1419 146.319 43.995 146.376 43.8579C146.433 43.7208 146.516 43.5963 146.622 43.4916C146.725 43.3809 146.851 43.2933 146.991 43.2346C147.13 43.1759 147.281 43.1474 147.432 43.151H150.872C151.024 43.1445 151.176 43.169 151.319 43.2231C151.461 43.2772 151.591 43.3597 151.7 43.4656C151.81 43.5716 151.897 43.6987 151.956 43.8392C152.014 43.9798 152.044 44.1308 152.043 44.2832V46.8977C152.049 47.8456 151.854 48.7841 151.472 49.6514C151.104 50.4916 150.585 51.2574 149.941 51.9109C148.939 52.9122 147.662 53.5924 146.272 53.8649C144.882 54.1375 143.442 53.99 142.136 53.4413C141.286 53.0829 140.514 52.5632 139.862 51.9109C139.209 51.2618 138.685 50.4952 138.317 49.6514C137.933 48.7846 137.739 47.8458 137.746 46.8977V40.0615Z" fill="#939598"/>
<path d="M153.141 39.6346C153.138 39.4844 153.165 39.3352 153.221 39.1959C153.277 39.0565 153.361 38.93 153.467 38.8238C153.573 38.7166 153.699 38.6324 153.838 38.5762C153.978 38.5201 154.128 38.4933 154.278 38.4976C154.532 38.4981 154.779 38.5881 154.973 38.7519C155.186 38.9246 155.334 39.165 155.391 39.4331C156.341 38.7238 157.501 38.3524 158.687 38.3777C159.249 38.4116 159.807 38.5032 160.351 38.6511C160.75 38.7663 161.129 38.9427 161.474 39.174C161.633 39.2778 161.762 39.4204 161.85 39.5883C161.939 39.7562 161.982 39.9439 161.978 40.1335C161.989 40.2873 161.968 40.4417 161.915 40.5866C161.862 40.7314 161.779 40.8632 161.671 40.973C161.563 41.0774 161.437 41.1591 161.297 41.2135C161.158 41.2679 161.009 41.2938 160.86 41.2897C160.612 41.2924 160.369 41.215 160.169 41.069C159.686 40.8017 159.143 40.6614 158.591 40.6612C158.174 40.6562 157.761 40.7362 157.377 40.8963C157.009 41.0502 156.671 41.2678 156.379 41.5391C156.094 41.811 155.865 42.1372 155.707 42.4986C155.55 42.8663 155.46 43.2598 155.444 43.6596V52.2372C155.447 52.3878 155.42 52.5376 155.363 52.6773C155.307 52.8171 155.223 52.9439 155.116 53.0503C155.009 53.1566 154.882 53.2401 154.742 53.2958C154.602 53.3514 154.452 53.3781 154.302 53.3742C154.154 53.3757 154.007 53.3476 153.871 53.2916C153.734 53.2355 153.61 53.1527 153.505 53.048C153.395 52.9445 153.307 52.8188 153.248 52.679C153.19 52.5393 153.161 52.3887 153.165 52.2372V39.6346H153.141Z" fill="#939598"/>
<path d="M162.222 43.8033C162.217 43.0899 162.354 42.3825 162.627 41.7232C162.9 41.0639 163.302 40.4662 163.81 39.9655C164.309 39.4757 164.895 39.0835 165.537 38.8093C166.885 38.253 168.397 38.253 169.745 38.8093C170.392 39.0752 170.979 39.4684 171.472 39.9655C171.965 40.463 172.361 41.0489 172.638 41.6925C172.926 42.3551 173.074 43.0709 173.069 43.7937V48.1114C173.074 48.8243 172.937 49.5311 172.665 50.1902C172.393 50.8492 171.992 51.4473 171.486 51.9492C170.467 52.9652 169.087 53.5357 167.648 53.5357C166.209 53.5357 164.829 52.9652 163.81 51.9492C163.317 51.451 162.92 50.8654 162.64 50.2222C162.352 49.5643 162.205 48.8535 162.208 48.1353L162.222 43.8033ZM164.506 48.121C164.505 48.5321 164.59 48.939 164.755 49.3155C164.919 49.6864 165.146 50.0257 165.427 50.3181C165.714 50.6119 166.059 50.8437 166.439 50.9994C167.222 51.319 168.099 51.319 168.881 50.9994C169.257 50.8412 169.598 50.6096 169.884 50.3181C170.169 50.0296 170.397 49.6893 170.555 49.3155C170.719 48.9387 170.802 48.5318 170.8 48.121V43.8033C170.801 43.3886 170.714 42.9784 170.546 42.5992C170.378 42.2279 170.15 41.8874 169.869 41.5918C169.589 41.296 169.247 41.0665 168.867 40.9201C168.083 40.6065 167.209 40.6065 166.425 40.9201C166.045 41.0723 165.701 41.3009 165.413 41.5918C165.125 41.88 164.896 42.2224 164.741 42.5992C164.586 42.9817 164.506 43.3906 164.506 43.8033V48.121Z" fill="#939598"/>
<path d="M174.206 39.6345C174.203 39.4839 174.231 39.3342 174.288 39.1948C174.344 39.0553 174.43 38.929 174.537 38.8238C174.643 38.7164 174.769 38.6319 174.909 38.5758C175.048 38.5196 175.198 38.493 175.348 38.4976C175.496 38.4958 175.643 38.5238 175.779 38.5798C175.916 38.6359 176.04 38.7188 176.144 38.8238C176.256 38.927 176.344 39.0526 176.404 39.1923C176.463 39.332 176.493 39.4827 176.49 39.6345V48.0923C176.488 48.5003 176.567 48.9047 176.723 49.2819C176.878 49.6591 177.107 50.0016 177.397 50.2895C177.69 50.5849 178.039 50.8186 178.424 50.9768C178.808 51.135 179.221 51.2145 179.637 51.2106C180.053 51.2103 180.466 51.1288 180.851 50.9707C181.229 50.8161 181.57 50.584 181.853 50.2895C182.132 49.9958 182.36 49.6567 182.525 49.2868C182.698 48.9124 182.786 48.5046 182.784 48.0923V39.6345C182.781 39.4839 182.808 39.3342 182.864 39.1944C182.921 39.0547 183.005 38.9278 183.111 38.8215C183.218 38.7152 183.345 38.6317 183.485 38.576C183.625 38.5203 183.775 38.4936 183.926 38.4976C184.225 38.5026 184.51 38.6243 184.721 38.8367C184.931 39.0491 185.051 39.3354 185.053 39.6345V48.0923C185.055 48.8107 184.906 49.5216 184.617 50.1791C184.34 50.8219 183.946 51.4075 183.456 51.9062C182.962 52.4022 182.375 52.7952 181.729 53.0623C180.381 53.6186 178.869 53.6186 177.521 53.0623C176.879 52.7881 176.293 52.396 175.794 51.9062C175.286 51.4055 174.883 50.8077 174.611 50.1484C174.338 49.4891 174.2 48.7818 174.206 48.0683V39.6345Z" fill="#939598"/>
<path d="M186.31 43.8033C186.301 43.0898 186.436 42.3818 186.708 41.7222C186.98 41.0625 187.383 40.4649 187.893 39.9655C188.392 39.4757 188.977 39.0835 189.62 38.8093C190.967 38.253 192.48 38.253 193.827 38.8093C194.475 39.0752 195.062 39.4684 195.555 39.9655C196.048 40.463 196.443 41.0489 196.72 41.6925C197.017 42.3567 197.171 43.0759 197.171 43.8033V48.121C197.166 49.5532 196.593 50.9249 195.578 51.935C194.562 52.9451 193.187 53.5109 191.755 53.5084C191.183 53.5105 190.614 53.4181 190.071 53.2349C189.549 53.0649 189.055 52.8157 188.608 52.4961V57.5334C188.61 57.6825 188.58 57.8303 188.521 57.9674C188.463 58.1045 188.376 58.2279 188.267 58.3297C188.162 58.4344 188.037 58.5171 187.899 58.5731C187.762 58.6291 187.615 58.6573 187.466 58.6559C187.316 58.6602 187.166 58.6335 187.027 58.5773C186.887 58.5212 186.761 58.4369 186.655 58.3297C186.549 58.2264 186.466 58.1025 186.41 57.9655C186.353 57.8285 186.326 57.6814 186.329 57.5334V43.8033H186.31ZM188.589 48.121C188.588 48.5321 188.673 48.939 188.838 49.3155C189.002 49.6876 189.231 50.0272 189.515 50.3181C189.799 50.6128 190.143 50.8448 190.522 50.9994C191.306 51.3193 192.185 51.3193 192.969 50.9994C193.343 50.8398 193.682 50.6084 193.967 50.3181C194.252 50.0284 194.481 49.6885 194.643 49.3155C194.803 48.9376 194.884 48.5313 194.883 48.121V43.8033C194.884 43.388 194.796 42.9772 194.624 42.5992C194.46 42.2272 194.233 41.8863 193.952 41.5918C193.672 41.296 193.33 41.0665 192.95 40.9201C192.166 40.6065 191.291 40.6065 190.508 40.9201C190.13 41.0736 189.787 41.3021 189.5 41.5918C189.209 41.881 188.978 42.2256 188.821 42.6054C188.665 42.9853 188.586 43.3925 188.589 43.8033V48.121Z" fill="#939598"/>
</g>
<defs>
<clipPath id="clip0_606_179">
<rect width="260.813" height="58" fill="white" transform="translate(0 0.627197)"/>
</clipPath>
</defs>
</svg>
