<svg width="261" height="59" viewBox="0 0 261 59" fill="none" xmlns="http://www.w3.org/2000/svg">
<g clip-path="url(#clip0_606_390)">
<path d="M221.47 5.29004H215.071C213.807 5.29004 212.782 6.31456 212.782 7.57838V13.9828C212.782 15.2467 213.807 16.2712 215.071 16.2712H221.47C222.734 16.2712 223.759 15.2467 223.759 13.9828V7.57838C223.759 6.31456 222.734 5.29004 221.47 5.29004Z" fill="white"/>
<path d="M233.818 17.6431H227.418C226.154 17.6431 225.13 18.6676 225.13 19.9314V26.3359C225.13 27.5997 226.154 28.6242 227.418 28.6242H233.818C235.082 28.6242 236.106 27.5997 236.106 26.3359V19.9314C236.106 18.6676 235.082 17.6431 233.818 17.6431Z" fill="white"/>
<path d="M212.782 38.6891C212.782 38.9894 212.841 39.2867 212.957 39.5641C213.072 39.8414 213.24 40.0934 213.453 40.3055C213.665 40.5176 213.918 40.6857 214.195 40.8002C214.473 40.9146 214.77 40.9732 215.071 40.9726H221.47C221.771 40.9732 222.068 40.9146 222.346 40.8002C222.623 40.6857 222.875 40.5176 223.088 40.3055C223.301 40.0934 223.469 39.8414 223.584 39.5641C223.699 39.2867 223.759 38.9894 223.759 38.6891V32.2894C223.759 31.9891 223.699 31.6918 223.584 31.4144C223.469 31.1371 223.301 30.8851 223.088 30.673C222.875 30.4609 222.623 30.2928 222.346 30.1783C222.068 30.0638 221.771 30.0052 221.47 30.0059H215.071C214.77 30.0052 214.473 30.0638 214.195 30.1783C213.918 30.2928 213.665 30.4609 213.453 30.673C213.24 30.8851 213.072 31.1371 212.957 31.4144C212.841 31.6918 212.782 31.9891 212.782 32.2894V38.6891Z" fill="white"/>
<path d="M200.429 51.0376C200.428 51.3383 200.487 51.6362 200.602 51.9141C200.716 52.192 200.885 52.4445 201.097 52.6571C201.31 52.8698 201.563 53.0383 201.841 53.1531C202.118 53.2678 202.416 53.3266 202.717 53.326H209.121C209.728 53.326 210.31 53.0849 210.74 52.6557C211.169 52.2266 211.41 51.6445 211.41 51.0376V44.6332C211.405 44.0296 211.161 43.4525 210.733 43.0275C210.304 42.6025 209.725 42.364 209.121 42.364H202.717C202.417 42.3634 202.119 42.422 201.842 42.5365C201.564 42.6509 201.312 42.819 201.099 43.0312C200.887 43.2433 200.718 43.4952 200.603 43.7726C200.488 44.0499 200.429 44.3473 200.429 44.6476V51.0376Z" fill="white"/>
<path d="M223.758 14.784C223.758 15.5474 224.061 16.2795 224.601 16.8193C225.141 17.3591 225.873 17.6624 226.637 17.6624H227.438C226.831 17.6636 226.25 17.9051 225.821 18.334C225.392 18.7629 225.151 19.3442 225.149 19.9507V19.1304C225.149 18.367 224.846 17.6348 224.306 17.095C223.767 16.5552 223.034 16.252 222.271 16.252H221.47C221.771 16.2526 222.068 16.1938 222.346 16.0791C222.624 15.9643 222.877 15.7958 223.089 15.5831C223.302 15.3705 223.471 15.118 223.585 14.8401C223.7 14.5622 223.759 14.2643 223.758 13.9636V14.784Z" fill="white"/>
<path d="M222.271 29.9963C223.034 29.9963 223.767 29.6931 224.306 29.1532C224.846 28.6134 225.149 27.8813 225.149 27.1179V26.3359C225.151 26.9425 225.392 27.5238 225.821 27.9526C226.25 28.3815 226.831 28.623 227.438 28.6243H226.637C225.873 28.6243 225.141 28.9275 224.601 29.4673C224.061 30.0071 223.758 30.7393 223.758 31.5027V32.2895C223.759 31.9888 223.7 31.6909 223.585 31.413C223.471 31.1351 223.302 30.8826 223.089 30.6699C222.877 30.4573 222.624 30.2888 222.346 30.174C222.068 30.0592 221.771 30.0005 221.47 30.0011L222.271 29.9963Z" fill="white"/>
<path d="M209.922 42.3642C210.686 42.3642 211.418 42.061 211.958 41.5212C212.497 40.9814 212.801 40.2492 212.801 39.4858V38.6895C212.801 38.9897 212.86 39.2871 212.975 39.5644C213.09 39.8418 213.259 40.0937 213.471 40.3059C213.684 40.518 213.936 40.6861 214.214 40.8005C214.491 40.915 214.789 40.9736 215.089 40.973H214.283C213.524 40.9793 212.798 41.2854 212.263 41.8245C211.729 42.3636 211.429 43.0921 211.429 43.8514V44.6574C211.429 44.3548 211.37 44.0552 211.254 43.7757C211.138 43.4963 210.968 43.2426 210.753 43.0293C210.539 42.8161 210.284 42.6475 210.004 42.5333C209.724 42.4192 209.424 42.3617 209.121 42.3642H209.922Z" fill="white"/>
<path d="M237.469 13.9829C237.468 14.2836 237.527 14.5814 237.642 14.8593C237.756 15.1373 237.925 15.3898 238.138 15.6024C238.35 15.815 238.603 15.9835 238.881 16.0983C239.159 16.2131 239.456 16.2719 239.757 16.2712H246.162C246.462 16.2712 246.759 16.212 247.037 16.0969C247.314 15.9819 247.566 15.8133 247.778 15.6007C247.99 15.3881 248.158 15.1358 248.273 14.8582C248.387 14.5806 248.446 14.2832 248.445 13.9829V7.57842C248.445 6.97235 248.205 6.39103 247.777 5.96202C247.348 5.53301 246.768 5.29135 246.162 5.29008H239.771C239.47 5.28819 239.171 5.34598 238.891 5.46013C238.612 5.57428 238.358 5.74253 238.144 5.95521C237.93 6.16789 237.76 6.4208 237.644 6.69938C237.528 6.97795 237.469 7.2767 237.469 7.57842V13.9829Z" fill="white"/>
<path d="M249.837 26.3359C249.837 26.9428 250.078 27.5248 250.507 27.954C250.936 28.3831 251.518 28.6242 252.125 28.6242H258.53C259.136 28.6229 259.717 28.3813 260.145 27.9523C260.573 27.5233 260.813 26.9419 260.813 26.3359V19.9314C260.813 19.3253 260.573 18.744 260.145 18.315C259.717 17.886 259.136 17.6443 258.53 17.6431H252.125C251.518 17.6431 250.936 17.8842 250.507 18.3133C250.078 18.7425 249.837 19.3245 249.837 19.9314V26.3359Z" fill="white"/>
<path d="M237.469 38.6891C237.469 38.9894 237.528 39.2868 237.643 39.5641C237.758 39.8415 237.927 40.0934 238.139 40.3056C238.352 40.5177 238.604 40.6858 238.882 40.8002C239.159 40.9147 239.457 40.9733 239.757 40.9727H246.162C246.767 40.9727 247.348 40.7321 247.776 40.3039C248.205 39.8756 248.445 39.2948 248.445 38.6891V32.2895C248.445 31.6838 248.205 31.103 247.776 30.6748C247.348 30.2465 246.767 30.0059 246.162 30.0059H239.771C239.47 30.0034 239.171 30.0606 238.892 30.1742C238.612 30.2878 238.358 30.4557 238.144 30.6679C237.93 30.8802 237.76 31.1328 237.644 31.4112C237.528 31.6895 237.469 31.988 237.469 32.2895V38.6891Z" fill="white"/>
<path d="M225.13 51.0379C225.13 51.6448 225.371 52.2268 225.8 52.656C226.229 53.0851 226.811 53.3262 227.418 53.3262H233.823C234.123 53.3268 234.421 53.2681 234.699 53.1533C234.977 53.0385 235.23 52.87 235.442 52.6574C235.655 52.4448 235.823 52.1923 235.938 51.9143C236.053 51.6364 236.112 51.3386 236.111 51.0379V44.6334C236.107 44.0294 235.864 43.4516 235.435 43.0263C235.007 42.601 234.427 42.363 233.823 42.3643H227.418C226.812 42.3643 226.231 42.6047 225.802 43.0328C225.373 43.4609 225.131 44.0417 225.13 44.6478V51.0379Z" fill="white"/>
<path d="M248.46 14.7842C248.46 15.5476 248.763 16.2798 249.303 16.8196C249.843 17.3594 250.575 17.6626 251.339 17.6626H252.14C251.533 17.6626 250.951 17.9037 250.522 18.3329C250.093 18.762 249.851 19.3441 249.851 19.951V19.1306C249.851 18.3672 249.548 17.6351 249.008 17.0953C248.469 16.5555 247.736 16.2522 246.973 16.2522H246.172C246.472 16.2522 246.769 16.193 247.047 16.0779C247.324 15.9629 247.576 15.7942 247.788 15.5817C248 15.3691 248.168 15.1168 248.283 14.8392C248.397 14.5616 248.456 14.2641 248.455 13.9639L248.46 14.7842Z" fill="white"/>
<path d="M246.977 29.9963C247.74 29.9963 248.473 29.6931 249.012 29.1532C249.552 28.6134 249.855 27.8813 249.855 27.1179V26.3359C249.855 26.9428 250.097 27.5249 250.526 27.954C250.955 28.3832 251.537 28.6243 252.144 28.6243H251.343C250.579 28.6243 249.847 28.9275 249.307 29.4673C248.767 30.0071 248.464 30.7393 248.464 31.5027V32.2895C248.465 31.9892 248.406 31.6917 248.292 31.4141C248.177 31.1365 248.009 30.8842 247.797 30.6716C247.585 30.4591 247.333 30.2905 247.056 30.1754C246.778 30.0603 246.481 30.0011 246.181 30.0011L246.977 29.9963Z" fill="white"/>
<path d="M234.624 42.364C235.388 42.364 236.12 42.0607 236.66 41.5209C237.199 40.9811 237.503 40.249 237.503 39.4856V38.6892C237.503 38.9895 237.562 39.2868 237.677 39.5642C237.792 39.8416 237.961 40.0935 238.173 40.3056C238.386 40.5177 238.638 40.6858 238.916 40.8003C239.193 40.9148 239.491 40.9734 239.791 40.9728H238.99C238.226 40.9728 237.494 41.276 236.954 41.8158C236.415 42.3556 236.111 43.0878 236.111 43.8512V44.6571C236.112 44.3562 236.053 44.0581 235.939 43.7799C235.824 43.5017 235.655 43.2489 235.443 43.0359C235.23 42.8229 234.978 42.6539 234.7 42.5386C234.422 42.4233 234.124 42.364 233.823 42.364H234.624Z" fill="white"/>
<path d="M0 5.22754H18.561L16.2486 9.19015H11.3314V25.4388H6.53879V9.19015H0V5.22754Z" fill="white"/>
<path d="M18.796 5.22754H29.6428C30.3433 5.22754 30.9717 5.22754 31.5234 5.2947C32.0287 5.33322 32.5297 5.41671 33.0202 5.54416C33.4434 5.65298 33.8444 5.8348 34.2051 6.08147C34.5746 6.3474 34.8987 6.67142 35.1646 7.04094C35.745 7.75448 36.1625 8.58623 36.3879 9.47799C36.5804 10.2842 36.6786 11.1101 36.6806 11.939C36.6887 12.6948 36.6147 13.4492 36.4599 14.189C36.3216 14.8711 36.0204 15.5097 35.582 16.0504C35.1666 16.5724 34.6319 16.987 34.0228 17.2593C33.547 17.493 33.0487 17.6779 32.5356 17.811C32.1608 17.8943 31.7779 17.9361 31.3939 17.9357L36.3927 25.4388H30.775L23.6413 14.4672V25.4388H18.796V5.22754ZM23.6413 13.9012H28.242C29.4989 13.9827 30.3864 13.8292 30.9045 13.4214C31.182 13.18 31.4012 12.879 31.5458 12.5409C31.6903 12.2027 31.7565 11.8362 31.7393 11.4689C31.7872 11.1314 31.7399 10.7873 31.6025 10.4753C31.4652 10.1634 31.2434 9.896 30.9621 9.70347C30.1646 9.27056 29.2551 9.08832 28.3523 9.18056H23.6413V13.9012Z" fill="white"/>
<path d="M55.419 7.34334C55.5123 7.35141 55.606 7.3343 55.6904 7.29379C55.7748 7.25329 55.8467 7.19088 55.8988 7.11307C56.008 6.93817 56.0783 6.74184 56.1051 6.53739C56.1429 6.28655 56.1605 6.03307 56.1578 5.7794V5.04541L58.048 5.75062C58.0476 6.19427 57.9993 6.63658 57.9041 7.06989C57.8233 7.48525 57.6012 7.85986 57.2756 8.13011C57.045 8.32992 56.765 8.46413 56.4649 8.51869C56.1256 8.55708 55.7844 8.5747 55.443 8.57146V16.8085C55.443 19.156 55.1456 20.8863 54.5507 21.9993C54.0534 22.9724 53.3005 23.7917 52.3727 24.3691C51.5185 24.8412 50.5908 25.1655 49.6286 25.3286C48.5615 25.5034 47.4814 25.5868 46.4 25.5781C45.7907 25.5781 45.2343 25.5781 44.7209 25.5253C44.2141 25.4889 43.7096 25.4248 43.2098 25.3334C42.708 25.247 42.215 25.1154 41.737 24.94C41.2197 24.7328 40.7193 24.4858 40.2402 24.2012C39.2174 23.5856 38.4793 22.5906 38.1869 21.4332C37.8243 19.7877 37.6633 18.1043 37.7072 16.4199V5.22771H42.5046V16.7797C42.4782 17.6525 42.5916 18.5238 42.8404 19.3607C43.0208 19.9601 43.4152 20.4723 43.9486 20.7999C44.3707 21.0445 44.8265 21.2255 45.3014 21.3372C45.6824 21.4105 46.0696 21.4474 46.4576 21.4476C47.3252 21.4678 48.1817 21.2487 48.933 20.8143C49.2746 20.6173 49.5729 20.3535 49.8103 20.0386C50.0477 19.7238 50.2192 19.3643 50.3147 18.9817C50.5463 17.9655 50.651 16.9246 50.6265 15.8826V5.22771H55.4238L55.419 7.34334Z" fill="white"/>
<path d="M66.5057 5.0741C67.2049 5.07526 67.9034 5.11851 68.5974 5.20363C69.3042 5.29149 70.0023 5.43914 70.6842 5.64498C71.3468 5.84504 71.9806 6.13048 72.5696 6.49412C73.1508 6.844 73.6657 7.29388 74.0903 7.82298C74.183 7.83056 74.2761 7.81374 74.3602 7.77418C74.4444 7.73462 74.5167 7.67371 74.5701 7.59751C74.6804 7.42098 74.7523 7.2232 74.7811 7.01703C74.8249 6.76679 74.8458 6.51308 74.8435 6.25905V5.52985L76.7049 6.23026C76.7036 6.67228 76.6554 7.11292 76.561 7.54474C76.4818 7.95599 76.2653 8.32814 75.9469 8.60015C75.7892 8.7334 75.611 8.84032 75.4192 8.91678C75.2405 8.97501 75.0577 9.0199 74.8723 9.05111C75.3813 10.0244 75.7511 11.0644 75.9709 12.1406C76.2058 13.2704 76.3232 14.4215 76.3211 15.5755C76.341 17.1495 76.1194 18.7173 75.6639 20.2241C75.3153 21.4411 74.6822 22.5577 73.8169 23.4815C73.1456 24.2109 72.288 24.7433 71.3366 25.0215C70.521 25.2484 69.6883 25.4088 68.8468 25.5012C68.0552 25.5732 67.2973 25.6068 66.5729 25.6068C65.1358 25.6201 63.7018 25.4704 62.2984 25.1606C61.0745 24.9065 59.9354 24.3452 58.9882 23.5295C57.9882 22.5615 57.2815 21.3311 56.9494 19.9795C56.4781 18.3929 56.2406 16.7461 56.2442 15.091V14.5393C56.2424 14.4044 56.252 14.2696 56.2729 14.1363L56.6184 11.9055C56.8117 10.6239 57.3048 9.4059 58.0576 8.35069C58.5204 7.65887 59.1155 7.06541 59.8086 6.60446C60.4553 6.17732 61.1596 5.84456 61.9002 5.6162C62.6411 5.39259 63.4032 5.24629 64.1742 5.17964C64.9514 5.10768 65.7237 5.0741 66.4865 5.0741M61.1758 14.9471C61.1608 16.0178 61.3047 17.0848 61.6028 18.1133C61.8729 19.0506 62.4815 19.8542 63.3107 20.3681C64.2118 20.9245 65.255 21.2078 66.3138 21.1836C67.1611 21.1827 67.9979 20.996 68.7653 20.6367C69.5203 20.2962 70.1495 19.7274 70.5643 19.0104C70.9442 18.4337 71.1856 17.777 71.2695 17.0915C71.351 16.5062 71.4038 16.132 71.4182 15.9689C71.4362 15.8257 71.4459 15.6815 71.447 15.5371C71.4545 14.5624 71.3154 13.5921 71.0344 12.6587C70.7844 11.7992 70.2832 11.0341 69.5952 10.4615C69.0984 10.1301 68.5483 9.88672 67.9689 9.74192C67.3329 9.57554 66.6785 9.49011 66.0212 9.48766C65.274 9.51337 64.5356 9.65748 63.8336 9.91463C63.4047 10.0655 63.0109 10.3019 62.6761 10.6095C62.3413 10.9171 62.0725 11.2895 61.8858 11.704C61.3982 12.7139 61.1597 13.826 61.1902 14.9471M63.4498 0.626953H66.4913L68.0457 3.75483H66.1267L63.4498 0.708508V0.626953Z" fill="white"/>
<path d="M84.5145 5.22754L90.6408 22.0231V5.22754H95.0879V25.4388H87.4457L81.7033 9.08461V25.4388H77.2178V5.22754H84.5145Z" fill="white"/>
<path d="M114.723 5.22766L112.354 9.59325H107.427C106.693 9.59325 106.031 9.59325 105.45 9.66042C104.93 9.6935 104.414 9.77868 103.91 9.91468C103.496 10.0227 103.107 10.2101 102.764 10.4664C102.431 10.73 102.152 11.0559 101.943 11.4258C101.575 12.08 101.301 12.7824 101.128 13.5127C100.989 14.172 100.922 14.8443 100.926 15.518C100.867 16.7473 101.153 17.9688 101.751 19.044C101.996 19.4456 102.304 19.8052 102.663 20.1091C102.997 20.3815 103.377 20.5927 103.785 20.7327C104.242 20.8856 104.716 20.9838 105.196 21.0253C105.784 21.0805 106.375 21.1061 106.966 21.1021H109.278V17.4801H104.179V13.1625H114.133V25.4389H105.277C103.722 25.4727 102.17 25.2589 100.682 24.8057C99.4289 24.4036 98.3715 23.5482 97.7168 22.407C97.0605 21.339 96.584 20.1705 96.3064 18.9481C96.0555 17.7395 95.9333 16.5077 95.9418 15.2733C95.9353 14.0708 96.0576 12.871 96.3064 11.6945C96.5841 10.4758 97.0417 9.30518 97.6641 8.22121C97.9714 7.63267 98.3988 7.11513 98.9185 6.70197C99.4383 6.28881 100.039 5.98922 100.682 5.82253C102.229 5.38411 103.832 5.17559 105.441 5.20367L114.723 5.22766Z" fill="white"/>
<path d="M119.253 5.22754H137.814L135.502 9.19015H130.584V25.4388H125.792V9.19015H119.253V5.22754Z" fill="white"/>
<path d="M137.991 5.22754H142.812V13.0328H149.941V5.22754H154.748V25.4388H149.941V13.7093L147.576 17.3984H142.812V25.4388H137.991V5.22754Z" fill="white"/>
<path d="M160.601 25.4388H155.751V5.22754H160.601V25.4388ZM160.601 29.3103H155.751V27.0795H160.601V29.3103Z" fill="white"/>
<path d="M169.327 5.22754L175.458 22.0231V5.22754H179.9V25.4388H172.258L166.521 9.08461V25.4388H162.03V5.22754H169.327Z" fill="white"/>
<path d="M181.057 5.22754H185.878V13.0328H193.012V5.22754H197.819V25.4388H193.012V13.7093L190.642 17.3984H185.878V25.4388H181.057V5.22754Z" fill="white"/>
<path d="M137.746 40.0612C137.738 39.1085 137.933 38.1649 138.317 37.2932C138.685 36.453 139.204 35.6872 139.848 35.0336C140.505 34.3686 141.289 33.8418 142.154 33.4842C143.018 33.1266 143.945 32.9455 144.88 32.9516C145.606 32.9475 146.328 33.0576 147.02 33.2778C147.692 33.4936 148.329 33.8072 148.91 34.2085C149.48 34.5999 149.992 35.0699 150.431 35.6045C150.879 36.1431 151.24 36.7485 151.5 37.3987C151.556 37.5525 151.586 37.7148 151.587 37.8784C151.586 38.1681 151.481 38.4477 151.289 38.6652C151.185 38.7839 151.056 38.8775 150.91 38.939C150.765 39.0005 150.608 39.0282 150.45 39.0202C150.245 39.0191 150.044 38.961 149.869 38.8523C149.679 38.7417 149.528 38.5738 149.438 38.3726C149.063 37.4729 148.445 36.6954 147.653 36.1274C146.852 35.5333 145.878 35.2181 144.88 35.2303C144.22 35.225 143.567 35.3574 142.961 35.6189C142.382 35.8626 141.853 36.2124 141.402 36.6503C140.959 37.0871 140.607 37.6072 140.366 38.1807C140.119 38.7769 139.994 39.4161 139.996 40.0612V46.8927C139.994 47.5351 140.126 48.1709 140.385 48.7588C140.631 49.3321 140.986 49.8519 141.431 50.2892C141.883 50.7261 142.411 51.0757 142.99 51.3206C143.582 51.5782 144.22 51.7105 144.866 51.7092C145.525 51.7151 146.179 51.5827 146.785 51.3206C147.356 51.072 147.877 50.7226 148.325 50.2892C148.769 49.8548 149.12 49.334 149.356 48.7588C149.606 48.1686 149.733 47.5337 149.73 46.8927V45.4151H147.432C147.282 45.4182 147.133 45.3909 146.994 45.3349C146.854 45.2788 146.728 45.1951 146.622 45.0889C146.516 44.9841 146.433 44.8596 146.376 44.7226C146.319 44.5855 146.29 44.4385 146.29 44.2901C146.29 44.1417 146.319 43.9947 146.376 43.8576C146.433 43.7206 146.516 43.5961 146.622 43.4913C146.725 43.3806 146.851 43.293 146.991 43.2343C147.13 43.1756 147.281 43.1471 147.432 43.1507H150.872C151.024 43.1442 151.176 43.1688 151.319 43.2228C151.461 43.2769 151.591 43.3595 151.7 43.4654C151.81 43.5713 151.897 43.6984 151.956 43.839C152.014 43.9795 152.044 44.1306 152.043 44.2829V46.8975C152.049 47.8454 151.854 48.7838 151.472 49.6512C151.104 50.4913 150.585 51.2571 149.941 51.9107C148.939 52.9119 147.662 53.5921 146.272 53.8647C144.882 54.1372 143.442 53.9897 142.136 53.4411C141.286 53.0826 140.514 52.5629 139.862 51.9107C139.209 51.2616 138.685 50.4949 138.317 49.6512C137.933 48.7843 137.739 47.8455 137.746 46.8975V40.0612Z" fill="white"/>
<path d="M153.141 39.6341C153.138 39.4839 153.165 39.3347 153.221 39.1954C153.277 39.056 153.361 38.9295 153.467 38.8233C153.573 38.7162 153.699 38.6319 153.838 38.5757C153.978 38.5196 154.128 38.4929 154.278 38.4971C154.532 38.4976 154.779 38.5876 154.973 38.7514C155.186 38.9241 155.334 39.1645 155.391 39.4326C156.341 38.7233 157.501 38.3519 158.687 38.3772C159.249 38.4111 159.807 38.5028 160.351 38.6506C160.75 38.7658 161.129 38.9422 161.474 39.1735C161.633 39.2773 161.762 39.4199 161.85 39.5878C161.939 39.7558 161.982 39.9434 161.978 40.133C161.989 40.2868 161.968 40.4412 161.915 40.5861C161.862 40.7309 161.779 40.8627 161.671 40.9726C161.563 41.0769 161.437 41.1586 161.297 41.213C161.158 41.2674 161.009 41.2933 160.86 41.2892C160.612 41.292 160.369 41.2146 160.169 41.0685C159.686 40.8012 159.143 40.6609 158.591 40.6607C158.174 40.6557 157.761 40.7357 157.377 40.8958C157.009 41.0497 156.671 41.2673 156.379 41.5386C156.094 41.8105 155.865 42.1367 155.707 42.4981C155.55 42.8658 155.46 43.2593 155.444 43.6591V52.2367C155.447 52.3874 155.42 52.5371 155.363 52.6768C155.307 52.8166 155.223 52.9435 155.116 53.0498C155.009 53.1561 154.882 53.2396 154.742 53.2953C154.602 53.351 154.452 53.3776 154.302 53.3737C154.154 53.3752 154.007 53.3471 153.871 53.2911C153.734 53.235 153.61 53.1522 153.505 53.0475C153.395 52.944 153.307 52.8183 153.248 52.6786C153.19 52.5388 153.161 52.3883 153.165 52.2367V39.6341H153.141Z" fill="white"/>
<path d="M162.222 43.8031C162.217 43.0896 162.354 42.3822 162.627 41.723C162.9 41.0637 163.302 40.4659 163.81 39.9652C164.309 39.4754 164.895 39.0833 165.537 38.809C166.885 38.2528 168.397 38.2528 169.745 38.809C170.392 39.075 170.979 39.4681 171.472 39.9652C171.965 40.4628 172.361 41.0486 172.638 41.6923C172.926 42.3549 173.074 43.0706 173.069 43.7935V48.1111C173.074 48.8241 172.937 49.5308 172.665 50.1899C172.393 50.849 171.992 51.4471 171.486 51.949C170.467 52.965 169.087 53.5355 167.648 53.5355C166.209 53.5355 164.829 52.965 163.81 51.949C163.317 51.4507 162.92 50.8651 162.64 50.222C162.352 49.5641 162.205 48.8532 162.208 48.1351L162.222 43.8031ZM164.506 48.1207C164.505 48.5319 164.59 48.9387 164.755 49.3153C164.919 49.6861 165.146 50.0255 165.427 50.3179C165.714 50.6116 166.059 50.8435 166.439 50.9991C167.222 51.3188 168.099 51.3188 168.881 50.9991C169.257 50.8409 169.598 50.6093 169.884 50.3179C170.169 50.0293 170.397 49.689 170.555 49.3153C170.719 48.9384 170.802 48.5316 170.8 48.1207V43.8031C170.801 43.3883 170.714 42.9781 170.546 42.599C170.378 42.2277 170.15 41.8871 169.869 41.5915C169.589 41.2958 169.247 41.0663 168.867 40.9199C168.083 40.6062 167.209 40.6062 166.425 40.9199C166.045 41.0721 165.701 41.3007 165.413 41.5915C165.125 41.8797 164.896 42.2221 164.741 42.599C164.586 42.9815 164.506 43.3903 164.506 43.8031V48.1207Z" fill="white"/>
<path d="M174.206 39.6343C174.203 39.4837 174.231 39.334 174.288 39.1945C174.344 39.055 174.43 38.9288 174.537 38.8235C174.643 38.7161 174.769 38.6317 174.909 38.5755C175.048 38.5194 175.198 38.4928 175.348 38.4973C175.496 38.4956 175.643 38.5236 175.779 38.5796C175.916 38.6356 176.04 38.7186 176.144 38.8235C176.256 38.9268 176.344 39.0524 176.404 39.1921C176.463 39.3318 176.493 39.4825 176.49 39.6343V48.092C176.488 48.5001 176.567 48.9044 176.723 49.2816C176.878 49.6588 177.107 50.0013 177.397 50.2892C177.69 50.5847 178.039 50.8184 178.424 50.9766C178.808 51.1348 179.221 51.2143 179.637 51.2103C180.053 51.2101 180.466 51.1286 180.851 50.9704C181.229 50.8158 181.57 50.5838 181.853 50.2892C182.132 49.9956 182.36 49.6565 182.525 49.2866C182.698 48.9122 182.786 48.5044 182.784 48.092V39.6343C182.781 39.4837 182.808 39.334 182.864 39.1942C182.921 39.0545 183.005 38.9276 183.111 38.8213C183.218 38.715 183.345 38.6314 183.485 38.5758C183.625 38.5201 183.775 38.4934 183.926 38.4973C184.225 38.5023 184.51 38.624 184.721 38.8364C184.931 39.0488 185.051 39.3352 185.053 39.6343V48.092C185.055 48.8105 184.906 49.5214 184.617 50.1789C184.34 50.8216 183.946 51.4073 183.456 51.9059C182.962 52.402 182.375 52.795 181.729 53.0621C180.381 53.6184 178.869 53.6184 177.521 53.0621C176.879 52.7879 176.293 52.3957 175.794 51.9059C175.286 51.4052 174.883 50.8075 174.611 50.1482C174.338 49.4889 174.2 48.7815 174.206 48.068V39.6343Z" fill="white"/>
<path d="M186.31 43.8031C186.301 43.0896 186.436 42.3816 186.708 41.7219C186.98 41.0623 187.383 40.4647 187.893 39.9652C188.392 39.4754 188.977 39.0833 189.62 38.809C190.967 38.2528 192.48 38.2528 193.827 38.809C194.475 39.075 195.062 39.4681 195.555 39.9652C196.048 40.4628 196.443 41.0486 196.72 41.6923C197.017 42.3564 197.171 43.0756 197.171 43.8031V48.1207C197.166 49.553 196.593 50.9247 195.578 51.9348C194.562 52.9448 193.187 53.5107 191.755 53.5081C191.183 53.5102 190.614 53.4178 190.071 53.2347C189.549 53.0646 189.055 52.8155 188.608 52.4959V57.5331C188.61 57.6822 188.58 57.83 188.521 57.9671C188.463 58.1042 188.376 58.2276 188.267 58.3295C188.162 58.4341 188.037 58.5169 187.899 58.5729C187.762 58.6289 187.615 58.657 187.466 58.6557C187.316 58.66 187.166 58.6332 187.027 58.5771C186.887 58.521 186.761 58.4367 186.655 58.3295C186.549 58.2262 186.466 58.1022 186.41 57.9652C186.353 57.8282 186.326 57.6811 186.329 57.5331V43.8031H186.31ZM188.589 48.1207C188.588 48.5319 188.673 48.9387 188.838 49.3153C189.002 49.6873 189.231 50.027 189.515 50.3179C189.799 50.6126 190.143 50.8446 190.522 50.9991C191.306 51.3191 192.185 51.3191 192.969 50.9991C193.343 50.8396 193.682 50.6081 193.967 50.3179C194.252 50.0282 194.481 49.6883 194.643 49.3153C194.803 48.9374 194.884 48.531 194.883 48.1207V43.8031C194.884 43.3877 194.796 42.9769 194.624 42.599C194.46 42.2269 194.233 41.8861 193.952 41.5915C193.672 41.2958 193.33 41.0663 192.95 40.9199C192.166 40.6062 191.291 40.6062 190.508 40.9199C190.13 41.0734 189.787 41.3019 189.5 41.5915C189.209 41.8807 188.978 42.2254 188.821 42.6052C188.665 42.985 188.586 43.3923 188.589 43.8031V48.1207Z" fill="white"/>
</g>
<defs>
<clipPath id="clip0_606_390">
<rect width="260.813" height="58" fill="white" transform="translate(0 0.626953)"/>
</clipPath>
</defs>
</svg>
